# xmcd
#
# Track frame offsets: 
#        183
#        12265
#        25513
#        38145
#        60780
#        72650
#        85198
#        98380
#        109475
#        121690
#        134733
#        148170
#        161820
#        173678
#
# Disc length: 2494 seconds
#
# Revision: 11
# Processed by: cddbd v1.5.2PL0 Copyright (c) Steve Scherf et al.
# Submitted via: ExactAudioCopyFreeDBPlugin 1.0
#
DISCID=b509bc0e
DTITLE=Various Artist - Blues Favourites FAV001
DYEAR=1992
DGENRE=Blues
TTITLE0=John Lee Hooker - I'm In The Mood (1951)
TTITLE1=Sonny Boy Williamson - Sad To Be Alone (1960)
TTITLE2=Howlin' Wolf - Spoonful (1962)
TTITLE3=B.B. King - Every Day (i Have The Blues) (1954)
TTITLE4=Little Milton - We're Gonna Make It (1965)
TTITLE5=John Lee Hooker - Hobo Blues (1949)
TTITLE6=Muddy Waters - Mannish Boy (1955)
TTITLE7=Howlin' Wolf - Red Rooster (1962)
TTITLE8=Elmore James - Mean Mistreatin' Mama (1965)
TTITLE9=Little Walter - Everybody Needs Somebody (1964)
TTITLE10=Muddy Waters - She Moves Me (1957)
TTITLE11=Memphins Slim - Slim's Blues (1950)
TTITLE12=Little Walter - My Babe (1957)
TTITLE13=Lightning Hopkins - Mojo Hand (1962)
EXTD=YEAR: 1992
EXTT0=
EXTT1=
EXTT2=
EXTT3=
EXTT4=
EXTT5=
EXTT6=
EXTT7=
EXTT8=
EXTT9=
EXTT10=
EXTT11=
EXTT12=
EXTT13=
PLAYORDER=
